<svg width="70" height="70" viewBox="0 0 70 70" fill="none" xmlns="http://www.w3.org/2000/svg">
<path d="M35 35C39.6413 35 44.0925 33.1563 47.3744 29.8744C50.6563 26.5925 52.5 22.1413 52.5 17.5C52.5 12.8587 50.6563 8.40752 47.3744 5.12563C44.0925 1.84375 39.6413 0 35 0C30.3587 0 25.9075 1.84375 22.6256 5.12563C19.3437 8.40752 17.5 12.8587 17.5 17.5C17.5 22.1413 19.3437 26.5925 22.6256 29.8744C25.9075 33.1563 30.3587 35 35 35ZM46.6667 17.5C46.6667 20.5942 45.4375 23.5617 43.2496 25.7496C41.0617 27.9375 38.0942 29.1667 35 29.1667C31.9058 29.1667 28.9383 27.9375 26.7504 25.7496C24.5625 23.5617 23.3333 20.5942 23.3333 17.5C23.3333 14.4058 24.5625 11.4383 26.7504 9.25042C28.9383 7.0625 31.9058 5.83333 35 5.83333C38.0942 5.83333 41.0617 7.0625 43.2496 9.25042C45.4375 11.4383 46.6667 14.4058 46.6667 17.5ZM70 64.1667C70 70 64.1667 70 64.1667 70H5.83333C5.83333 70 0 70 0 64.1667C0 58.3333 5.83333 40.8333 35 40.8333C64.1667 40.8333 70 58.3333 70 64.1667ZM64.1667 64.1433C64.1608 62.7083 63.2683 58.3917 59.3133 54.4367C55.51 50.6333 48.3525 46.6667 35 46.6667C21.6417 46.6667 14.49 50.6333 10.6867 54.4367C6.73167 58.3917 5.845 62.7083 5.83333 64.1433H64.1667Z"/>
</svg>
